<svg width="38" height="38" viewBox="0 0 38 38" fill="none" xmlns="http://www.w3.org/2000/svg">
<path d="M30.3168 11.6329L25.448 16.2047L30.0779 28.937L26.6054 32.4094L19.6884 22.2844L16.1881 25.4645V28.937L12.7157 32.4094L10.6622 26.3537L4.61333 24.307L8.08577 20.8346H11.5582L15.0306 17.3622L4.61333 10.4173L8.08577 6.94485L20.818 11.5748L25.4061 6.72216L25.3075 6.80442C25.6299 6.48139 26.0127 6.22506 26.4341 6.05009C26.8556 5.87511 27.3074 5.78492 27.7637 5.78467C28.22 5.78442 28.6719 5.87411 29.0936 6.04863C29.5152 6.22314 29.8983 6.47905 30.221 6.80172C30.5437 7.1244 30.7996 7.5075 30.9741 7.92914C31.1486 8.35079 31.2383 8.80269 31.2381 9.25902C31.2378 9.71534 31.1476 10.1671 30.9726 10.5886C30.7977 11.01 30.5413 11.3929 30.2183 11.7152L30.3168 11.6329Z" stroke="#BCA4FF" stroke-width="2.31496" stroke-linecap="round" stroke-linejoin="round"/>
</svg>
