<svg width="38" height="38" viewBox="0 0 38 38" fill="none" xmlns="http://www.w3.org/2000/svg">
<path d="M30.0943 11.5747C30.0943 10.9608 29.8504 10.3719 29.4163 9.9378C28.9821 9.50366 28.3933 9.25977 27.7794 9.25977H21.992L30.0943 23.1495" stroke="#BCA4FF" stroke-width="2.31496" stroke-linecap="round" stroke-linejoin="round"/>
<path d="M30.0942 28.937C33.2905 28.937 35.8816 26.3459 35.8816 23.1496C35.8816 19.9533 33.2905 17.3622 30.0942 17.3622C26.8979 17.3622 24.3068 19.9533 24.3068 23.1496C24.3068 26.3459 26.8979 28.937 30.0942 28.937Z" stroke="#BCA4FF" stroke-width="2.31496" stroke-linecap="round" stroke-linejoin="round"/>
<path d="M6.94525 28.937C10.1415 28.937 12.7326 26.3459 12.7326 23.1496C12.7326 19.9533 10.1415 17.3622 6.94525 17.3622C3.74896 17.3622 1.15785 19.9533 1.15785 23.1496C1.15785 26.3459 3.74896 28.937 6.94525 28.937Z" stroke="#BCA4FF" stroke-width="2.31496" stroke-linecap="round" stroke-linejoin="round"/>
<path d="M6.9453 9.25977H10.9965L19.0988 23.1495" stroke="#BCA4FF" stroke-width="2.31496" stroke-linecap="round" stroke-linejoin="round"/>
<path d="M24.6094 13.8896H13.6973L6.9453 23.1495" stroke="#BCA4FF" stroke-width="2.31496" stroke-linecap="round" stroke-linejoin="round"/>
</svg>
