<svg width="38" height="38" viewBox="0 0 38 38" fill="none" xmlns="http://www.w3.org/2000/svg">
<path d="M18.5192 32.4094C26.1903 32.4094 32.409 26.1907 32.409 18.5196C32.409 10.8485 26.1903 4.62988 18.5192 4.62988C10.8481 4.62988 4.62946 10.8485 4.62946 18.5196C4.62946 26.1907 10.8481 32.4094 18.5192 32.4094Z" stroke="#BCA4FF" stroke-width="2.31496" stroke-linecap="round" stroke-linejoin="round"/>
<path d="M7.17351 26.5343L8.86311 25.5143C9.03284 25.4119 9.1734 25.2675 9.27133 25.0952C9.36926 24.9228 9.42127 24.7282 9.42239 24.5299L9.45173 19.3026C9.45295 19.0842 9.51595 18.8706 9.63342 18.6865L12.5043 14.1871C12.5892 14.0541 12.7003 13.9399 12.831 13.8514C12.9616 13.7629 13.1089 13.7021 13.2639 13.6726C13.4188 13.6431 13.5782 13.6457 13.7322 13.68C13.8861 13.7144 14.0315 13.7798 14.1592 13.8724L17.0031 15.9328C17.244 16.1073 17.5428 16.1824 17.8375 16.1425L22.3923 15.5256C22.6717 15.4878 22.9276 15.3493 23.1122 15.1361L26.318 11.4321C26.5126 11.2072 26.6132 10.916 26.5989 10.619L26.4299 7.10266" stroke="#BCA4FF" stroke-width="2.31496" stroke-linecap="round" stroke-linejoin="round"/>
<path d="M27.0653 29.4698L25.5126 27.914C25.3674 27.7685 25.186 27.6643 24.9872 27.6121L21.8825 26.7973C21.6069 26.725 21.3677 26.5536 21.2106 26.3159C21.0535 26.0782 20.9896 25.791 21.0311 25.5091L21.3762 23.1658C21.4053 22.968 21.4852 22.7811 21.608 22.6233C21.7308 22.4656 21.8924 22.3423 22.0771 22.2656L26.4828 20.4344C26.6863 20.3498 26.9097 20.325 27.1268 20.3631C27.3439 20.4011 27.5456 20.5003 27.7082 20.6491L31.3101 23.9432" stroke="#BCA4FF" stroke-width="2.31496" stroke-linecap="round" stroke-linejoin="round"/>
</svg>
