<svg width="20" height="20" viewBox="0 0 20 20" fill="none" xmlns="http://www.w3.org/2000/svg">
<g clip-path="url(#clip0_2289_6749)">
<path d="M10.3025 12.4558C10.3025 10.9158 9.57 9.7775 8.05667 9.35083C9.16083 8.825 9.73667 8.02833 9.73667 6.78917C9.73667 4.34583 7.91 3.75 5.8025 3.75H0V16.0175H5.965C8.20167 16.0175 10.3025 14.9483 10.3025 12.4558ZM2.705 5.84417H5.24333C6.21917 5.84417 7.0975 6.1175 7.0975 7.24583C7.0975 8.2875 6.41417 8.70667 5.4475 8.70667H2.705V5.84417ZM2.70417 13.9342V10.5558H5.6525C6.84333 10.5558 7.59667 11.0508 7.59667 12.3075C7.59667 13.5467 6.6975 13.9342 5.59667 13.9342H2.70417Z" fill="#333333"/>
<path d="M15.6633 16.2498C17.7916 16.2498 19.1699 15.2939 19.8333 13.2623H17.6733C17.4408 14.0206 16.4824 14.4214 15.7391 14.4214C14.3049 14.4214 13.5516 13.5839 13.5516 12.1606H19.9791C20.1824 9.31227 18.5958 6.88477 15.6624 6.88477C12.9466 6.88477 11.1033 8.91977 11.1033 11.5856C11.1033 14.3523 12.8499 16.2498 15.6633 16.2498V16.2498ZM15.5866 8.7281C16.8158 8.7281 17.4341 9.4481 17.5374 10.6256H13.5549C13.6358 9.4581 14.4133 8.7281 15.5866 8.7281Z" fill="#333333"/>
<path d="M13.0559 4.39404H18.0459V5.60238H13.0559V4.39404Z" fill="#333333"/>
</g>
<defs>
<clipPath id="clip0_2289_6749">
<rect width="20" height="20" fill="white"/>
</clipPath>
</defs>
</svg>
