<svg width="20" height="20" viewBox="0 0 20 20" fill="none" xmlns="http://www.w3.org/2000/svg">
<g clip-path="url(#clip0_2289_6755)">
<path d="M10 0C4.48625 0 0 4.48625 0 10C0 15.5137 4.48625 20 10 20C15.5137 20 20 15.5137 20 10C20 4.48625 15.5137 0 10 0ZM10 18.75C5.175 18.75 1.25 14.8237 1.25 10C1.25 5.175 5.175 1.25 10 1.25C14.8237 1.25 18.75 5.175 18.75 10C18.75 14.8237 14.8237 18.75 10 18.75Z" fill="#333333"/>
<path d="M10 2.5C9.47503 2.5 8.96253 2.555 8.46753 2.6575C9.37753 3.9475 10.2038 5.29 10.9313 6.68125C12.3075 6.04 13.6025 5.2125 14.785 4.225C13.4863 3.1475 11.8188 2.5 10 2.5Z" fill="#333333"/>
<path d="M15.6762 5.10742C14.3899 6.19117 12.9749 7.08992 11.4724 7.79242C11.8012 8.47742 12.1062 9.17117 12.3887 9.87617C14.0487 9.53492 15.7762 9.50367 17.4887 9.78742C17.4387 7.99992 16.7662 6.36992 15.6762 5.10742Z" fill="#333333"/>
<path d="M7.21248 3.04102C4.96123 3.94352 3.25373 5.90352 2.69873 8.30977C5.12623 8.41352 7.52873 8.00852 9.76498 7.15477C9.01373 5.72852 8.16248 4.35352 7.21248 3.04102Z" fill="#333333"/>
<path d="M10.325 8.28613C8.16 9.12988 5.8475 9.58988 3.49625 9.58988C3.1725 9.58988 2.8475 9.56988 2.5225 9.55238C2.51375 9.70113 2.5 9.84863 2.5 9.99988C2.5 11.8411 3.16625 13.5261 4.2675 14.8311C6.06875 12.5949 8.49 10.9924 11.17 10.1874C10.9087 9.54488 10.6262 8.91238 10.325 8.28613Z" fill="#333333"/>
<path d="M12.8474 11.0598C13.4437 12.7223 13.9112 14.4311 14.2537 16.1736C15.9437 15.0073 17.1237 13.1661 17.4199 11.0386C15.8874 10.7673 14.3387 10.7798 12.8474 11.0598Z" fill="#333333"/>
<path d="M11.62 11.3501C9.10003 12.0863 6.82378 13.5988 5.15503 15.7201C6.46253 16.8288 8.15128 17.5001 10 17.5001C11.11 17.5001 12.1613 17.2526 13.1088 16.8188C12.765 14.9513 12.265 13.1238 11.62 11.3501Z" fill="#333333"/>
</g>
<defs>
<clipPath id="clip0_2289_6755">
<rect width="20" height="20" fill="white"/>
</clipPath>
</defs>
</svg>
