<svg width="20" height="20" viewBox="0 0 20 20" fill="none" xmlns="http://www.w3.org/2000/svg">
<g clip-path="url(#clip0_2289_6743)">
<path d="M17.6108 0.15625H2.7017C2.02661 0.15625 1.37916 0.424431 0.901796 0.901796C0.424431 1.37916 0.15625 2.02661 0.15625 2.7017V17.6108C0.15625 18.2859 0.424431 18.9333 0.901796 19.4107C1.37916 19.8881 2.02661 20.1562 2.7017 20.1562H10.0049V11.8346H8.34057V8.50598H9.99111V7.00171C9.99111 5.64025 10.6397 3.51325 13.4938 3.51325L16.0649 3.52357V6.37543H14.1978C13.8942 6.37543 13.4622 6.52661 13.4622 7.17507V8.5062H16.1074L15.8038 11.8348H13.3335V20.1562H17.6108C17.9451 20.1562 18.2761 20.0904 18.5849 19.9625C18.8937 19.8346 19.1743 19.6471 19.4107 19.4107C19.6471 19.1743 19.8346 18.8937 19.9625 18.5849C20.0904 18.2761 20.1562 17.9451 20.1562 17.6108V2.7017C20.1562 2.36743 20.0904 2.03643 19.9625 1.7276C19.8346 1.41877 19.6471 1.13816 19.4107 0.901796C19.1743 0.665429 18.8937 0.477932 18.5849 0.350011C18.2761 0.22209 17.9451 0.15625 17.6108 0.15625Z" fill="#333333"/>
</g>
<defs>
<clipPath id="clip0_2289_6743">
<rect width="20" height="20" fill="white"/>
</clipPath>
</defs>
</svg>
