<svg width="22" height="16" viewBox="0 0 22 16" fill="none" xmlns="http://www.w3.org/2000/svg">
<path d="M0.5 1.28467C0.5 1.48358 0.579018 1.67435 0.719669 1.815C0.860321 1.95565 1.05109 2.03467 1.25 2.03467H20.75C20.9489 2.03467 21.1397 1.95565 21.2803 1.815C21.421 1.67435 21.5 1.48358 21.5 1.28467C21.5 1.08576 21.421 0.89499 21.2803 0.754338C21.1397 0.613686 20.9489 0.534668 20.75 0.534668H1.25C1.05109 0.534668 0.860321 0.613686 0.719669 0.754338C0.579018 0.89499 0.5 1.08576 0.5 1.28467ZM4.25 7.28467H20.75C20.9489 7.28467 21.1397 7.36369 21.2803 7.50434C21.421 7.64499 21.5 7.83576 21.5 8.03467C21.5 8.23358 21.421 8.42435 21.2803 8.565C21.1397 8.70565 20.9489 8.78467 20.75 8.78467H4.25C4.05109 8.78467 3.86032 8.70565 3.71967 8.565C3.57902 8.42435 3.5 8.23358 3.5 8.03467C3.5 7.83576 3.57902 7.64499 3.71967 7.50434C3.86032 7.36369 4.05109 7.28467 4.25 7.28467ZM11 14.0347H20.75C20.9489 14.0347 21.1397 14.1137 21.2803 14.2543C21.421 14.395 21.5 14.5858 21.5 14.7847C21.5 14.9836 21.421 15.1743 21.2803 15.315C21.1397 15.4557 20.9489 15.5347 20.75 15.5347H11C10.8011 15.5347 10.6103 15.4557 10.4697 15.315C10.329 15.1743 10.25 14.9836 10.25 14.7847C10.25 14.5858 10.329 14.395 10.4697 14.2543C10.6103 14.1137 10.8011 14.0347 11 14.0347Z" fill="#333333"/>
</svg>
