<svg width="24" height="25" viewBox="0 0 24 25" fill="none" xmlns="http://www.w3.org/2000/svg">
<path d="M1.5 5.28467C1.5 5.48358 1.57902 5.67435 1.71967 5.815C1.86032 5.95565 2.05109 6.03467 2.25 6.03467H21.75C21.9489 6.03467 22.1397 5.95565 22.2803 5.815C22.421 5.67435 22.5 5.48358 22.5 5.28467C22.5 5.08576 22.421 4.89499 22.2803 4.75434C22.1397 4.61369 21.9489 4.53467 21.75 4.53467H2.25C2.05109 4.53467 1.86032 4.61369 1.71967 4.75434C1.57902 4.89499 1.5 5.08576 1.5 5.28467ZM5.25 11.2847H21.75C21.9489 11.2847 22.1397 11.3637 22.2803 11.5043C22.421 11.645 22.5 11.8358 22.5 12.0347C22.5 12.2336 22.421 12.4243 22.2803 12.565C22.1397 12.7057 21.9489 12.7847 21.75 12.7847H5.25C5.05109 12.7847 4.86032 12.7057 4.71967 12.565C4.57902 12.4243 4.5 12.2336 4.5 12.0347C4.5 11.8358 4.57902 11.645 4.71967 11.5043C4.86032 11.3637 5.05109 11.2847 5.25 11.2847ZM12 18.0347H21.75C21.9489 18.0347 22.1397 18.1137 22.2803 18.2543C22.421 18.395 22.5 18.5858 22.5 18.7847C22.5 18.9836 22.421 19.1743 22.2803 19.315C22.1397 19.4557 21.9489 19.5347 21.75 19.5347H12C11.8011 19.5347 11.6103 19.4557 11.4697 19.315C11.329 19.1743 11.25 18.9836 11.25 18.7847C11.25 18.5858 11.329 18.395 11.4697 18.2543C11.6103 18.1137 11.8011 18.0347 12 18.0347Z" fill="#333333"/>
</svg>
