<svg width="62" height="65" viewBox="0 0 62 65" fill="none" xmlns="http://www.w3.org/2000/svg">
<path d="M40.375 32.75H49.75V40.25C49.75 44.3868 46.3868 47.75 42.25 47.75H41.3126C39.754 47.75 38.5 49.0039 38.5 50.5626V56.1874C38.5 57.746 39.7539 59 41.3126 59H42.25C52.6094 59 61 50.6094 61 40.25V12.125C61 9.01952 58.4805 6.5 55.375 6.5H40.375C37.2695 6.5 34.75 9.01952 34.75 12.125V27.125C34.75 30.2305 37.2695 32.75 40.375 32.75Z" fill="#333333"/>
<path d="M6.625 32.75H16V40.25C16 44.3868 12.6368 47.75 8.5 47.75H7.56256C6.004 47.75 4.75 49.0039 4.75 50.5626V56.1874C4.75 57.746 6.00388 59 7.56256 59H8.5C18.8594 59 27.25 50.6094 27.25 40.25V12.125C27.25 9.01952 24.7305 6.5 21.625 6.5H6.625C3.51952 6.5 1 9.01952 1 12.125V27.125C1 30.2305 3.51952 32.75 6.625 32.75Z" fill="#333333"/>
</svg>
