<svg width="62" height="65" viewBox="0 0 62 65" fill="none" xmlns="http://www.w3.org/2000/svg">
<path d="M21.625 32.25H12.25V24.75C12.25 20.6132 15.6132 17.25 19.75 17.25H20.6874C22.246 17.25 23.5 15.9961 23.5 14.4374V8.81256C23.5 7.254 22.2461 6 20.6874 6H19.75C9.39064 6 1 14.3906 1 24.75V52.875C1 55.9805 3.51952 58.5 6.625 58.5H21.625C24.7305 58.5 27.25 55.9805 27.25 52.875V37.875C27.25 34.7695 24.7305 32.25 21.625 32.25Z" fill="#333333"/>
<path d="M55.375 32.25H46V24.75C46 20.6132 49.3632 17.25 53.5 17.25H54.4374C55.996 17.25 57.25 15.9961 57.25 14.4374V8.81256C57.25 7.254 55.9961 6 54.4374 6H53.5C43.1406 6 34.75 14.3906 34.75 24.75V52.875C34.75 55.9805 37.2695 58.5 40.375 58.5H55.375C58.4805 58.5 61 55.9805 61 52.875V37.875C61 34.7695 58.4805 32.25 55.375 32.25Z" fill="#333333"/>
</svg>
