<svg width="20" height="20" viewBox="0 0 20 20" fill="none" xmlns="http://www.w3.org/2000/svg">
<path d="M17.98 5.04C17.38 5.3 16.76 5.48 16.1 5.56C16.78 5.16 17.3 4.52 17.54 3.74C16.9 4.12 16.2 4.38 15.46 4.54C14.86 3.9 14 3.5 13.06 3.5C11.24 3.5 9.77998 4.98 9.77998 6.78C9.77998 7.04 9.79998 7.28 9.85998 7.52C7.13998 7.4 4.73998 6.08 3.11998 4.1C1.95998 6.18 3.25998 7.9 4.11998 8.48C3.59998 8.48 3.07998 8.32 2.63998 8.08C2.63998 9.7 3.77998 11.04 5.25998 11.34C4.93998 11.44 4.21998 11.5 3.77998 11.4C4.19998 12.7 5.41998 13.66 6.83998 13.68C5.71998 14.56 4.07998 15.26 1.97998 15.04C3.43998 15.98 5.15998 16.52 7.01998 16.52C13.06 16.52 16.34 11.52 16.34 7.2C16.34 7.06 16.34 6.92 16.32 6.78C17 6.28 17.56 5.7 17.98 5.04V5.04Z" fill="#333333"/>
</svg>
